<?xml version="1.0" encoding="UTF-8" standalone="no"?>
<!DOCTYPE svg PUBLIC "-//W3C//DTD SVG 1.1//EN"
 "http://www.w3.org/Graphics/SVG/1.1/DTD/svg11.dtd">
<!-- Generated by graphviz version 9.0.0 (20230911.1827)
 -->
<!-- Pages: 1 -->
<svg width="720pt" height="305pt"
 viewBox="0.00 0.00 720.00 304.87" xmlns="http://www.w3.org/2000/svg" xmlns:xlink="http://www.w3.org/1999/xlink">
<g id="graph0" class="graph" transform="scale(0.82811 0.82811) rotate(0) translate(4 364.15)">
<polygon fill="#475b65" stroke="none" points="-4,4 -4,-364.15 865.45,-364.15 865.45,4 -4,4"/>
<!-- node1 -->
<g id="node1" class="node">
<title>node1</title>
<polygon fill="white" stroke="none" points="7.2,-215.2 7.2,-243.7 279.45,-243.7 279.45,-215.2 7.2,-215.2"/>
<polygon fill="none" stroke="black" points="7.2,-215.2 7.2,-243.7 279.45,-243.7 279.45,-215.2 7.2,-215.2"/>
<text text-anchor="start" x="65.7" y="-227.45" font-family="Times,serif" font-weight="bold" font-size="15.00"> 연구시간 확보 (3개월) &#160;</text>
<polygon fill="white" stroke="none" points="7.2,-186.7 7.2,-215.2 279.45,-215.2 279.45,-186.7 7.2,-186.7"/>
<polygon fill="none" stroke="black" points="7.2,-186.7 7.2,-215.2 279.45,-215.2 279.45,-186.7 7.2,-186.7"/>
<text text-anchor="start" x="10.2" y="-198.95" font-family="Times,serif" font-style="italic" font-size="15.00"> 기준일: 2021년 5월 15일 ~ 교육 시작전 </text>
<polygon fill="white" stroke="none" points="7.2,-158.2 7.2,-186.7 279.45,-186.7 279.45,-158.2 7.2,-158.2"/>
<polygon fill="none" stroke="black" points="7.2,-158.2 7.2,-186.7 279.45,-186.7 279.45,-158.2 7.2,-158.2"/>
<text text-anchor="start" x="49.2" y="-169.45" font-family="Times,serif" font-size="15.00"> 주말 7시간씩 / 200시간 목표 </text>
<polygon fill="white" stroke="none" points="7.2,-129.7 7.2,-158.2 279.45,-158.2 279.45,-129.7 7.2,-129.7"/>
<polygon fill="none" stroke="black" points="7.2,-129.7 7.2,-158.2 279.45,-158.2 279.45,-129.7 7.2,-129.7"/>
<text text-anchor="start" x="42.45" y="-140.95" font-family="Times,serif" font-size="15.00"> 도봉구 거주 (2022년 9월까지) </text>
</g>
<!-- node2 -->
<g id="node2" class="node">
<title>node2</title>
<polygon fill="white" stroke="none" points="338.1,-302.2 338.1,-330.7 591.6,-330.7 591.6,-302.2 338.1,-302.2"/>
<polygon fill="none" stroke="black" points="338.1,-302.2 338.1,-330.7 591.6,-330.7 591.6,-302.2 338.1,-302.2"/>
<text text-anchor="start" x="393.98" y="-314.45" font-family="Times,serif" font-weight="bold" font-size="15.00"> 삼성 SSAFY (1년) &#160;</text>
<polygon fill="white" stroke="none" points="338.1,-273.7 338.1,-302.2 591.6,-302.2 591.6,-273.7 338.1,-273.7"/>
<polygon fill="none" stroke="black" points="338.1,-273.7 338.1,-302.2 591.6,-302.2 591.6,-273.7 338.1,-273.7"/>
<text text-anchor="start" x="341.1" y="-285.95" font-family="Times,serif" font-style="italic" font-size="15.00"> 기준일: 2021년 6월 ~ 2022년 6월 &#160;&#160;&#160;</text>
<polygon fill="white" stroke="none" points="338.1,-245.2 338.1,-273.7 591.6,-273.7 591.6,-245.2 338.1,-245.2"/>
<polygon fill="none" stroke="black" points="338.1,-245.2 338.1,-273.7 591.6,-273.7 591.6,-245.2 338.1,-245.2"/>
<text text-anchor="start" x="362.1" y="-256.45" font-family="Times,serif" font-size="15.00"> *적성검사: 2021년 5월 22일* </text>
<polygon fill="white" stroke="none" points="338.1,-216.7 338.1,-245.2 591.6,-245.2 591.6,-216.7 338.1,-216.7"/>
<polygon fill="none" stroke="black" points="338.1,-216.7 338.1,-245.2 591.6,-245.2 591.6,-216.7 338.1,-216.7"/>
<text text-anchor="start" x="355.73" y="-227.95" font-family="Times,serif" font-size="15.00"> 매달 100만원(세전), 84만원 저축 </text>
</g>
<!-- node1&#45;&gt;node2 -->
<g id="edge1" class="edge">
<title>node1&#45;&gt;node2</title>
<path fill="none" stroke="white" d="M286.33,-225.37C297.46,-228.4 308.7,-231.46 319.84,-234.49"/>
<polygon fill="white" stroke="white" points="318.91,-237.86 329.48,-237.11 320.75,-231.11 318.91,-237.86"/>
</g>
<!-- node3 -->
<g id="node3" class="node">
<title>node3</title>
<polygon fill="white" stroke="none" points="329.85,-147.45 329.85,-175.95 599.85,-175.95 599.85,-147.45 329.85,-147.45"/>
<polygon fill="none" stroke="black" points="329.85,-147.45 329.85,-175.95 599.85,-175.95 599.85,-147.45 329.85,-147.45"/>
<text text-anchor="start" x="398.85" y="-159.7" font-family="Times,serif" font-weight="bold" font-size="15.00"> 42SEOUL (1년) </text>
<polygon fill="white" stroke="none" points="329.85,-118.95 329.85,-147.45 599.85,-147.45 599.85,-118.95 329.85,-118.95"/>
<polygon fill="none" stroke="black" points="329.85,-118.95 329.85,-147.45 599.85,-147.45 599.85,-118.95 329.85,-118.95"/>
<text text-anchor="start" x="339.98" y="-131.2" font-family="Times,serif" font-style="italic" font-size="15.00">기준일: 2021년 11월 1일 ~ 23개월간</text>
<polygon fill="white" stroke="none" points="329.85,-67.95 329.85,-118.95 599.85,-118.95 599.85,-67.95 329.85,-67.95"/>
<polygon fill="none" stroke="black" points="329.85,-67.95 329.85,-118.95 599.85,-118.95 599.85,-67.95 329.85,-67.95"/>
<text text-anchor="start" x="337.73" y="-101.7" font-family="Times,serif" font-size="15.00">*La Piscine 신청: 8월 2일 16시42분*</text>
<text text-anchor="start" x="332.85" y="-79.2" font-family="Times,serif" font-size="15.00">*집중교육: 8월16일(월) ~ 9월10일(금)*</text>
<polygon fill="white" stroke="none" points="329.85,-39.45 329.85,-67.95 599.85,-67.95 599.85,-39.45 329.85,-39.45"/>
<polygon fill="none" stroke="black" points="329.85,-39.45 329.85,-67.95 599.85,-67.95 599.85,-39.45 329.85,-39.45"/>
<text text-anchor="start" x="355.73" y="-50.7" font-family="Times,serif" font-size="15.00"> 매달 100만원(세전), 84만원 저축 </text>
</g>
<!-- node1&#45;&gt;node3 -->
<g id="edge2" class="edge">
<title>node1&#45;&gt;node3</title>
<path fill="none" stroke="white" d="M286.33,-151.59C294.79,-149.5 303.32,-147.39 311.82,-145.29"/>
<polygon fill="white" stroke="white" points="312.63,-148.69 321.5,-142.9 310.95,-141.9 312.63,-148.69"/>
</g>
<!-- node4 -->
<g id="node4" class="node">
<title>node4</title>
<polygon fill="white" stroke="none" points="651.75,-324.45 651.75,-352.95 852.75,-352.95 852.75,-324.45 651.75,-324.45"/>
<polygon fill="none" stroke="black" points="651.75,-324.45 651.75,-352.95 852.75,-352.95 852.75,-324.45 651.75,-324.45"/>
<text text-anchor="start" x="703.5" y="-336.7" font-family="Times,serif" font-weight="bold" font-size="15.00"> 대학원 (2년) &#160;</text>
<polygon fill="white" stroke="none" points="651.75,-295.95 651.75,-324.45 852.75,-324.45 852.75,-295.95 651.75,-295.95"/>
<polygon fill="none" stroke="black" points="651.75,-295.95 651.75,-324.45 852.75,-324.45 852.75,-295.95 651.75,-295.95"/>
<text text-anchor="start" x="654.75" y="-308.2" font-family="Times,serif" font-style="italic" font-size="15.00"> 기준일: 2022년 9월 ~ 2년간 </text>
<polygon fill="white" stroke="none" points="651.75,-267.45 651.75,-295.95 852.75,-295.95 852.75,-267.45 651.75,-267.45"/>
<polygon fill="none" stroke="black" points="651.75,-267.45 651.75,-295.95 852.75,-295.95 852.75,-267.45 651.75,-267.45"/>
<text text-anchor="start" x="693.38" y="-278.7" font-family="Times,serif" font-size="15.00"> 연구실 참여 (2년) </text>
<polygon fill="white" stroke="none" points="651.75,-238.95 651.75,-267.45 852.75,-267.45 852.75,-238.95 651.75,-238.95"/>
<polygon fill="none" stroke="black" points="651.75,-238.95 651.75,-267.45 852.75,-267.45 852.75,-238.95 651.75,-238.95"/>
<text text-anchor="start" x="654.75" y="-250.2" font-family="Times,serif" font-size="15.00"> 주말 9시간씩 / 1800시간 목표</text>
<polygon fill="white" stroke="none" points="651.75,-210.45 651.75,-238.95 852.75,-238.95 852.75,-210.45 651.75,-210.45"/>
<polygon fill="none" stroke="black" points="651.75,-210.45 651.75,-238.95 852.75,-238.95 852.75,-210.45 651.75,-210.45"/>
<text text-anchor="start" x="724.12" y="-221.7" font-family="Times,serif" font-size="15.00"> 기숙사? </text>
</g>
<!-- node2&#45;&gt;node4 -->
<g id="edge3" class="edge">
<title>node2&#45;&gt;node4</title>
<path fill="none" stroke="white" d="M598.52,-277.42C610.1,-277.74 621.76,-278.07 633.2,-278.39"/>
<polygon fill="white" stroke="white" points="632.95,-281.89 643.05,-278.67 633.15,-274.89 632.95,-281.89"/>
</g>
<!-- node5 -->
<g id="node5" class="node">
<title>node5</title>
<polygon fill="white" stroke="none" points="650.25,-149.7 650.25,-178.2 854.25,-178.2 854.25,-149.7 650.25,-149.7"/>
<polygon fill="none" stroke="black" points="650.25,-149.7 650.25,-178.2 854.25,-178.2 854.25,-149.7 650.25,-149.7"/>
<text text-anchor="start" x="703.5" y="-161.95" font-family="Times,serif" font-weight="bold" font-size="15.00"> 대학원 (2년) &#160;</text>
<polygon fill="white" stroke="none" points="650.25,-121.2 650.25,-149.7 854.25,-149.7 854.25,-121.2 650.25,-121.2"/>
<polygon fill="none" stroke="black" points="650.25,-121.2 650.25,-149.7 854.25,-149.7 854.25,-121.2 650.25,-121.2"/>
<text text-anchor="start" x="653.25" y="-133.45" font-family="Times,serif" font-style="italic" font-size="15.00"> 기준일: 2022년 9월 ~ 2년간 &#160;</text>
<polygon fill="white" stroke="none" points="650.25,-92.7 650.25,-121.2 854.25,-121.2 854.25,-92.7 650.25,-92.7"/>
<polygon fill="none" stroke="black" points="650.25,-92.7 650.25,-121.2 854.25,-121.2 854.25,-92.7 650.25,-92.7"/>
<text text-anchor="start" x="690" y="-103.95" font-family="Times,serif" font-size="15.00"> 42SEOUL (1년) </text>
<polygon fill="white" stroke="none" points="650.25,-64.2 650.25,-92.7 854.25,-92.7 854.25,-64.2 650.25,-64.2"/>
<polygon fill="none" stroke="black" points="650.25,-64.2 650.25,-92.7 854.25,-92.7 854.25,-64.2 650.25,-64.2"/>
<text text-anchor="start" x="654" y="-75.45" font-family="Times,serif" font-size="15.00"> 연구실 참여 (1년만 가능한가?) </text>
<polygon fill="white" stroke="none" points="650.25,-35.7 650.25,-64.2 854.25,-64.2 854.25,-35.7 650.25,-35.7"/>
<polygon fill="none" stroke="black" points="650.25,-35.7 650.25,-64.2 854.25,-64.2 854.25,-35.7 650.25,-35.7"/>
<text text-anchor="start" x="653.25" y="-46.95" font-family="Times,serif" font-size="15.00"> 주말 9시간씩 / 1800시간 목표 </text>
<polygon fill="white" stroke="none" points="650.25,-7.2 650.25,-35.7 854.25,-35.7 854.25,-7.2 650.25,-7.2"/>
<polygon fill="none" stroke="black" points="650.25,-7.2 650.25,-35.7 854.25,-35.7 854.25,-7.2 650.25,-7.2"/>
<text text-anchor="start" x="724.12" y="-18.45" font-family="Times,serif" font-size="15.00"> 기숙사? </text>
</g>
<!-- node3&#45;&gt;node5 -->
<g id="edge4" class="edge">
<title>node3&#45;&gt;node5</title>
<path fill="none" stroke="white" d="M606.88,-100.29C615.28,-99.85 623.69,-99.4 631.98,-98.97"/>
<polygon fill="white" stroke="white" points="631.91,-102.48 641.71,-98.46 631.54,-95.49 631.91,-102.48"/>
</g>
</g>
</svg>
